<svg width="20" height="20" viewBox="0 0 20 20" fill="none" xmlns="http://www.w3.org/2000/svg">
<path d="M17.7583 16.5968L14.7236 13.5866C15.9016 12.1179 16.4721 10.2536 16.3177 8.37716C16.1634 6.50072 15.2959 4.75473 13.8938 3.4982C12.4917 2.24168 10.6614 1.57012 8.77932 1.62162C6.89725 1.67312 5.10644 2.44377 3.77512 3.77509C2.4438 5.10641 1.67315 6.89722 1.62165 8.77929C1.57015 10.6614 2.24171 12.4916 3.49824 13.8938C4.75476 15.2959 6.50075 16.1633 8.37719 16.3177C10.2536 16.472 12.1179 15.9016 13.5866 14.7236L16.5968 17.7338C16.6728 17.8104 16.7633 17.8713 16.863 17.9128C16.9627 17.9543 17.0696 17.9757 17.1776 17.9757C17.2855 17.9757 17.3925 17.9543 17.4921 17.9128C17.5918 17.8713 17.6823 17.8104 17.7583 17.7338C17.9058 17.5812 17.9882 17.3774 17.9882 17.1653C17.9882 16.9531 17.9058 16.7493 17.7583 16.5968V16.5968ZM8.99779 14.7236C7.86532 14.7236 6.75829 14.3878 5.81668 13.7586C4.87507 13.1295 4.14118 12.2352 3.7078 11.1889C3.27442 10.1427 3.16103 8.9914 3.38197 7.8807C3.6029 6.77 4.14823 5.74975 4.94901 4.94898C5.74978 4.1482 6.77003 3.60287 7.88073 3.38194C8.99143 3.161 10.1427 3.27439 11.189 3.70777C12.2352 4.14114 13.1295 4.87504 13.7586 5.81665C14.3878 6.75826 14.7236 7.86529 14.7236 8.99776C14.7236 10.5163 14.1204 11.9727 13.0466 13.0465C11.9728 14.1203 10.5164 14.7236 8.99779 14.7236V14.7236Z" fill="white"/>
</svg>
