<svg width="1300" height="700" viewBox="0 0 1300 700" fill="none" xmlns="http://www.w3.org/2000/svg">
<path d="M610.417 375.873C599.603 375.174 589.328 371.616 581.059 365.706C572.79 359.796 566.95 351.837 564.372 342.966C561.795 334.094 562.612 324.764 566.706 316.307C570.801 307.849 577.964 300.698 587.173 295.873C589.133 283.007 596.593 271.183 608.157 262.614C619.721 254.045 634.596 249.319 650 249.319C665.404 249.319 680.279 254.045 691.843 262.614C703.407 271.183 710.867 283.007 712.827 295.873C722.036 300.698 729.199 307.849 733.294 316.307C737.388 324.764 738.205 334.094 735.628 342.966C733.05 351.837 727.21 359.796 718.941 365.706C710.672 371.616 700.397 375.174 689.583 375.873V376H610.417V375.873ZM657.917 322.667H681.667L650 289.333L618.333 322.667H642.083V349.333H657.917V322.667Z" fill="#1E77CC"/>
<path d="M520.136 417.091H524.364V440.205C524.364 442.591 523.801 444.722 522.676 446.597C521.563 448.46 519.989 449.932 517.955 451.011C515.92 452.08 513.534 452.614 510.795 452.614C508.057 452.614 505.67 452.08 503.636 451.011C501.602 449.932 500.023 448.46 498.898 446.597C497.784 444.722 497.227 442.591 497.227 440.205V417.091H501.455V439.864C501.455 441.568 501.83 443.085 502.58 444.415C503.33 445.733 504.398 446.773 505.784 447.534C507.182 448.284 508.852 448.659 510.795 448.659C512.739 448.659 514.409 448.284 515.807 447.534C517.205 446.773 518.273 445.733 519.011 444.415C519.761 443.085 520.136 441.568 520.136 439.864V417.091ZM532.26 461.818V425.818H536.146V429.977H536.624C536.919 429.523 537.328 428.943 537.851 428.239C538.385 427.523 539.146 426.886 540.135 426.33C541.135 425.761 542.487 425.477 544.192 425.477C546.396 425.477 548.339 426.028 550.021 427.131C551.703 428.233 553.016 429.795 553.959 431.818C554.902 433.841 555.374 436.227 555.374 438.977C555.374 441.75 554.902 444.153 553.959 446.188C553.016 448.21 551.709 449.778 550.038 450.892C548.368 451.994 546.442 452.545 544.26 452.545C542.578 452.545 541.232 452.267 540.22 451.71C539.209 451.142 538.43 450.5 537.885 449.784C537.339 449.057 536.919 448.455 536.624 447.977H536.283V461.818H532.26ZM536.214 438.909C536.214 440.886 536.504 442.631 537.084 444.142C537.663 445.642 538.51 446.818 539.624 447.67C540.737 448.511 542.101 448.932 543.714 448.932C545.396 448.932 546.8 448.489 547.925 447.602C549.061 446.705 549.913 445.5 550.482 443.989C551.061 442.466 551.351 440.773 551.351 438.909C551.351 437.068 551.067 435.409 550.499 433.932C549.942 432.443 549.095 431.267 547.959 430.403C546.834 429.528 545.419 429.091 543.714 429.091C542.078 429.091 540.703 429.506 539.589 430.335C538.476 431.153 537.635 432.301 537.067 433.778C536.499 435.244 536.214 436.955 536.214 438.909ZM565.533 417.091V452H561.51V417.091H565.533ZM583.537 452.545C581.173 452.545 579.099 451.983 577.315 450.858C575.543 449.733 574.156 448.159 573.156 446.136C572.168 444.114 571.673 441.75 571.673 439.045C571.673 436.318 572.168 433.937 573.156 431.903C574.156 429.869 575.543 428.29 577.315 427.165C579.099 426.04 581.173 425.477 583.537 425.477C585.901 425.477 587.969 426.04 589.741 427.165C591.526 428.29 592.912 429.869 593.901 431.903C594.901 433.937 595.401 436.318 595.401 439.045C595.401 441.75 594.901 444.114 593.901 446.136C592.912 448.159 591.526 449.733 589.741 450.858C587.969 451.983 585.901 452.545 583.537 452.545ZM583.537 448.932C585.332 448.932 586.81 448.472 587.969 447.551C589.128 446.631 589.986 445.42 590.543 443.92C591.099 442.42 591.378 440.795 591.378 439.045C591.378 437.295 591.099 435.665 590.543 434.153C589.986 432.642 589.128 431.42 587.969 430.489C586.81 429.557 585.332 429.091 583.537 429.091C581.741 429.091 580.264 429.557 579.105 430.489C577.946 431.42 577.088 432.642 576.531 434.153C575.974 435.665 575.696 437.295 575.696 439.045C575.696 440.795 575.974 442.42 576.531 443.92C577.088 445.42 577.946 446.631 579.105 447.551C580.264 448.472 581.741 448.932 583.537 448.932ZM609.246 452.614C607.587 452.614 606.081 452.301 604.729 451.676C603.376 451.04 602.303 450.125 601.507 448.932C600.712 447.727 600.314 446.273 600.314 444.568C600.314 443.068 600.609 441.852 601.2 440.92C601.791 439.977 602.581 439.239 603.57 438.705C604.558 438.17 605.649 437.773 606.842 437.511C608.047 437.239 609.257 437.023 610.473 436.864C612.064 436.659 613.354 436.506 614.342 436.403C615.342 436.29 616.07 436.102 616.524 435.841C616.99 435.58 617.223 435.125 617.223 434.477V434.341C617.223 432.659 616.763 431.352 615.842 430.42C614.933 429.489 613.553 429.023 611.7 429.023C609.78 429.023 608.274 429.443 607.183 430.284C606.092 431.125 605.325 432.023 604.882 432.977L601.064 431.614C601.746 430.023 602.655 428.784 603.791 427.898C604.939 427 606.189 426.375 607.541 426.023C608.905 425.659 610.246 425.477 611.564 425.477C612.405 425.477 613.371 425.58 614.462 425.784C615.564 425.977 616.626 426.381 617.649 426.994C618.683 427.608 619.541 428.534 620.223 429.773C620.905 431.011 621.246 432.67 621.246 434.75V452H617.223V448.455H617.018C616.746 449.023 616.291 449.631 615.655 450.278C615.018 450.926 614.172 451.477 613.115 451.932C612.058 452.386 610.768 452.614 609.246 452.614ZM609.859 449C611.45 449 612.791 448.688 613.882 448.062C614.984 447.438 615.814 446.631 616.371 445.642C616.939 444.653 617.223 443.614 617.223 442.523V438.841C617.053 439.045 616.678 439.233 616.098 439.403C615.53 439.562 614.871 439.705 614.121 439.83C613.382 439.943 612.661 440.045 611.956 440.136C611.263 440.216 610.7 440.284 610.268 440.341C609.223 440.477 608.246 440.699 607.337 441.006C606.439 441.301 605.712 441.75 605.155 442.352C604.609 442.943 604.337 443.75 604.337 444.773C604.337 446.17 604.854 447.227 605.888 447.943C606.933 448.648 608.257 449 609.859 449ZM638.474 452.545C636.293 452.545 634.366 451.994 632.696 450.892C631.026 449.778 629.719 448.21 628.776 446.188C627.832 444.153 627.361 441.75 627.361 438.977C627.361 436.227 627.832 433.841 628.776 431.818C629.719 429.795 631.031 428.233 632.713 427.131C634.395 426.028 636.338 425.477 638.543 425.477C640.247 425.477 641.594 425.761 642.582 426.33C643.582 426.886 644.344 427.523 644.866 428.239C645.401 428.943 645.815 429.523 646.111 429.977H646.452V417.091H650.474V452H646.588V447.977H646.111C645.815 448.455 645.395 449.057 644.849 449.784C644.304 450.5 643.526 451.142 642.514 451.71C641.503 452.267 640.156 452.545 638.474 452.545ZM639.02 448.932C640.634 448.932 641.997 448.511 643.111 447.67C644.224 446.818 645.071 445.642 645.651 444.142C646.23 442.631 646.52 440.886 646.52 438.909C646.52 436.955 646.236 435.244 645.668 433.778C645.099 432.301 644.259 431.153 643.145 430.335C642.031 429.506 640.656 429.091 639.02 429.091C637.315 429.091 635.895 429.528 634.759 430.403C633.634 431.267 632.787 432.443 632.219 433.932C631.662 435.409 631.384 437.068 631.384 438.909C631.384 440.773 631.668 442.466 632.236 443.989C632.815 445.5 633.668 446.705 634.793 447.602C635.929 448.489 637.338 448.932 639.02 448.932ZM676.673 417.091V452H672.446V417.091H676.673ZM684.604 452V425.818H688.49V429.909H688.831C689.376 428.511 690.257 427.426 691.473 426.653C692.689 425.869 694.149 425.477 695.854 425.477C697.581 425.477 699.018 425.869 700.166 426.653C701.325 427.426 702.229 428.511 702.876 429.909H703.149C703.82 428.557 704.825 427.483 706.166 426.688C707.507 425.881 709.115 425.477 710.99 425.477C713.331 425.477 715.246 426.21 716.734 427.676C718.223 429.131 718.967 431.398 718.967 434.477V452H714.945V434.477C714.945 432.545 714.416 431.165 713.359 430.335C712.303 429.506 711.058 429.091 709.626 429.091C707.786 429.091 706.359 429.648 705.348 430.761C704.337 431.864 703.831 433.261 703.831 434.955V452H699.74V434.068C699.74 432.58 699.257 431.381 698.291 430.472C697.325 429.551 696.081 429.091 694.558 429.091C693.513 429.091 692.536 429.369 691.626 429.926C690.729 430.483 690.001 431.256 689.445 432.244C688.899 433.222 688.626 434.352 688.626 435.636V452H684.604ZM734.027 452.614C732.368 452.614 730.862 452.301 729.51 451.676C728.158 451.04 727.084 450.125 726.288 448.932C725.493 447.727 725.095 446.273 725.095 444.568C725.095 443.068 725.391 441.852 725.982 440.92C726.572 439.977 727.362 439.239 728.351 438.705C729.339 438.17 730.43 437.773 731.624 437.511C732.828 437.239 734.038 437.023 735.254 436.864C736.845 436.659 738.135 436.506 739.124 436.403C740.124 436.29 740.851 436.102 741.305 435.841C741.771 435.58 742.004 435.125 742.004 434.477V434.341C742.004 432.659 741.544 431.352 740.624 430.42C739.714 429.489 738.334 429.023 736.482 429.023C734.561 429.023 733.055 429.443 731.964 430.284C730.874 431.125 730.107 432.023 729.663 432.977L725.845 431.614C726.527 430.023 727.436 428.784 728.572 427.898C729.72 427 730.97 426.375 732.322 426.023C733.686 425.659 735.027 425.477 736.345 425.477C737.186 425.477 738.152 425.58 739.243 425.784C740.345 425.977 741.408 426.381 742.43 426.994C743.464 427.608 744.322 428.534 745.004 429.773C745.686 431.011 746.027 432.67 746.027 434.75V452H742.004V448.455H741.8C741.527 449.023 741.072 449.631 740.436 450.278C739.8 450.926 738.953 451.477 737.896 451.932C736.839 452.386 735.55 452.614 734.027 452.614ZM734.641 449C736.232 449 737.572 448.688 738.663 448.062C739.766 447.438 740.595 446.631 741.152 445.642C741.72 444.653 742.004 443.614 742.004 442.523V438.841C741.834 439.045 741.459 439.233 740.879 439.403C740.311 439.562 739.652 439.705 738.902 439.83C738.163 439.943 737.442 440.045 736.737 440.136C736.044 440.216 735.482 440.284 735.05 440.341C734.004 440.477 733.027 440.699 732.118 441.006C731.22 441.301 730.493 441.75 729.936 442.352C729.391 442.943 729.118 443.75 729.118 444.773C729.118 446.17 729.635 447.227 730.669 447.943C731.714 448.648 733.038 449 734.641 449ZM763.938 462.364C761.994 462.364 760.324 462.114 758.926 461.614C757.528 461.125 756.364 460.477 755.432 459.67C754.511 458.875 753.778 458.023 753.233 457.114L756.438 454.864C756.801 455.341 757.261 455.886 757.818 456.5C758.375 457.125 759.136 457.665 760.102 458.119C761.08 458.585 762.358 458.818 763.938 458.818C766.051 458.818 767.795 458.307 769.17 457.284C770.545 456.261 771.233 454.659 771.233 452.477V447.159H770.892C770.597 447.636 770.176 448.227 769.631 448.932C769.097 449.625 768.324 450.244 767.312 450.79C766.312 451.324 764.96 451.591 763.256 451.591C761.142 451.591 759.244 451.091 757.562 450.091C755.892 449.091 754.568 447.636 753.591 445.727C752.625 443.818 752.142 441.5 752.142 438.773C752.142 436.091 752.614 433.756 753.557 431.767C754.5 429.767 755.813 428.222 757.494 427.131C759.176 426.028 761.119 425.477 763.324 425.477C765.028 425.477 766.381 425.761 767.381 426.33C768.392 426.886 769.165 427.523 769.699 428.239C770.244 428.943 770.665 429.523 770.96 429.977H771.369V425.818H775.256V452.75C775.256 455 774.744 456.83 773.722 458.239C772.71 459.659 771.347 460.699 769.631 461.358C767.926 462.028 766.028 462.364 763.938 462.364ZM763.801 447.977C765.415 447.977 766.778 447.608 767.892 446.869C769.006 446.131 769.852 445.068 770.432 443.682C771.011 442.295 771.301 440.636 771.301 438.705C771.301 436.818 771.017 435.153 770.449 433.71C769.881 432.267 769.04 431.136 767.926 430.318C766.813 429.5 765.438 429.091 763.801 429.091C762.097 429.091 760.676 429.523 759.54 430.386C758.415 431.25 757.568 432.409 757 433.864C756.443 435.318 756.165 436.932 756.165 438.705C756.165 440.523 756.449 442.131 757.017 443.528C757.597 444.915 758.449 446.006 759.574 446.801C760.71 447.585 762.119 447.977 763.801 447.977ZM793.597 452.545C791.074 452.545 788.898 451.989 787.068 450.875C785.25 449.75 783.847 448.182 782.858 446.17C781.881 444.148 781.392 441.795 781.392 439.114C781.392 436.432 781.881 434.068 782.858 432.023C783.847 429.966 785.222 428.364 786.983 427.216C788.756 426.057 790.824 425.477 793.188 425.477C794.551 425.477 795.898 425.705 797.227 426.159C798.557 426.614 799.767 427.352 800.858 428.375C801.949 429.386 802.818 430.727 803.466 432.398C804.114 434.068 804.438 436.125 804.438 438.568V440.273H784.256V436.795H800.347C800.347 435.318 800.051 434 799.46 432.841C798.881 431.682 798.051 430.767 796.972 430.097C795.903 429.426 794.642 429.091 793.188 429.091C791.585 429.091 790.199 429.489 789.028 430.284C787.869 431.068 786.977 432.091 786.352 433.352C785.727 434.614 785.415 435.966 785.415 437.409V439.727C785.415 441.705 785.756 443.381 786.438 444.756C787.131 446.119 788.091 447.159 789.318 447.875C790.545 448.58 791.972 448.932 793.597 448.932C794.653 448.932 795.608 448.784 796.46 448.489C797.324 448.182 798.068 447.727 798.693 447.125C799.318 446.511 799.801 445.75 800.142 444.841L804.028 445.932C803.619 447.25 802.932 448.409 801.966 449.409C801 450.398 799.807 451.17 798.386 451.727C796.966 452.273 795.369 452.545 793.597 452.545Z" fill="black"/>
<rect x="2.5" y="2.5" width="1295" height="695" rx="21.5" stroke="#1E77CC" stroke-width="5" stroke-dasharray="20 12"/>
</svg>
