<svg width="42" height="42" viewBox="0 0 42 42" fill="none" xmlns="http://www.w3.org/2000/svg">
<path d="M33.25 22.75H8.75C8.28587 22.75 7.84075 22.5656 7.51256 22.2374C7.18437 21.9092 7 21.4641 7 21C7 20.5359 7.18437 20.0908 7.51256 19.7626C7.84075 19.4344 8.28587 19.25 8.75 19.25H33.25C33.7141 19.25 34.1592 19.4344 34.4874 19.7626C34.8156 20.0908 35 20.5359 35 21C35 21.4641 34.8156 21.9092 34.4874 22.2374C34.1592 22.5656 33.7141 22.75 33.25 22.75Z" fill="#FFAA00"/>
<path d="M29.75 31.5H12.25C11.7859 31.5 11.3408 31.3156 11.0126 30.9874C10.6844 30.6592 10.5 30.2141 10.5 29.75C10.5 29.2859 10.6844 28.8408 11.0126 28.5126C11.3408 28.1844 11.7859 28 12.25 28H29.75C30.2141 28 30.6592 28.1844 30.9874 28.5126C31.3156 28.8408 31.5 29.2859 31.5 29.75C31.5 30.2141 31.3156 30.6592 30.9874 30.9874C30.6592 31.3156 30.2141 31.5 29.75 31.5ZM36.75 14H5.25C4.78587 14 4.34075 13.8156 4.01256 13.4874C3.68437 13.1592 3.5 12.7141 3.5 12.25C3.5 11.7859 3.68437 11.3408 4.01256 11.0126C4.34075 10.6844 4.78587 10.5 5.25 10.5H36.75C37.2141 10.5 37.6592 10.6844 37.9874 11.0126C38.3156 11.3408 38.5 11.7859 38.5 12.25C38.5 12.7141 38.3156 13.1592 37.9874 13.4874C37.6592 13.8156 37.2141 14 36.75 14Z" fill="black"/>
</svg>
